<svg width="77" height="195" fill="none" xmlns="http://www.w3.org/2000/svg">
<path d="M32.66 191v2h41.22l.002-1.999L74 7.604l.001-1.726-1.707-.254-17.488-2.602-.906-.135-.694.598c-2.091 1.801-5.101 3.926-9.075 6.377-3.882 2.361-8.202 4.73-12.963 7.103l-.012.006a200.18 200.18 0 0 1-14.157 6.503l-.01.004c-4.674 1.96-8.85 3.459-12.535 4.505l-1.685.479.252 1.733 3.308 22.8.3 2.063 2.048-.384a619.91 619.91 0 0 0 13.159-2.61 297.817 297.817 0 0 0 10.824-2.486V191Z" stroke="#0049AF" stroke-width="4"/></svg>