<svg width="170" height="453" fill="none" xmlns="http://www.w3.org/2000/svg"><path d="M73.829 449v2h92.888l.001-1.999L167 11.213l.001-1.725-1.707-.254-41.763-6.212-.906-.135-.694.597c-5.153 4.437-12.482 9.599-22.032 15.488-9.35 5.684-19.739 11.375-31.17 17.072l-.012.006a481.02 481.02 0 0 1-34.003 15.613l-.011.004c-11.235 4.71-21.316 8.33-30.25 10.865l-1.684.479.252 1.733 7.901 54.427.3 2.062 2.047-.383a1483.354 1483.354 0 0 0 31.365-6.22 714.372 714.372 0 0 0 29.195-6.777V449Z" stroke="#fff" stroke-width="4"/></svg>