<svg width="138" height="193" fill="none" xmlns="http://www.w3.org/2000/svg"><path d="M8.432 189.602 8.873 191H136v-34.695l-2.086.09-70.356 3.036c11.399-8.174 21.698-16.936 30.893-26.291 10.801-10.903 19.29-22.38 25.438-34.434 6.256-12.187 9.406-24.633 9.406-37.318 0-10.546-2.038-20.332-6.136-29.33-4.069-9.12-10.692-16.413-19.786-21.872C94.267 4.67 82.365 2 67.823 2c-10.836 0-20.446 1.335-28.8 4.047l-.006.002c-8.162 2.676-15.164 5.957-20.976 9.865-5.617 3.75-10.162 7.373-13.6 10.874l-1.107 1.129.843 1.338L17.46 50.359l1.331 2.114 1.772-1.761c4.06-4.036 9.64-7.484 16.824-10.293 7.13-2.786 14.62-4.182 22.49-4.182 8.447 0 14.786 2.457 19.29 7.159l.011.011.012.012c4.554 4.601 6.995 11.542 6.995 21.178 0 8.1-1.716 16.27-5.182 24.522-3.49 8.232-8.167 16.321-14.04 24.268-5.897 7.896-12.45 15.388-19.662 22.475-7.232 7.108-14.624 13.597-22.175 19.471l-.008.007c-7.488 5.889-14.547 10.905-21.18 15.057l-1.312.821.466 1.476 5.339 16.908Z" stroke="#0049AF" stroke-width="4"/></svg>