<svg width="318" height="451" xmlns="http://www.w3.org/2000/svg"><path d="m15.84 447.601.44 1.399H315v-77.38l-2.086.09-177.435 7.679c30.188-21.033 57.23-43.736 81.121-68.112 25.617-25.934 45.705-53.187 60.236-81.763 14.756-28.825 22.156-58.196 22.156-88.092 0-24.888-4.794-47.926-14.404-69.086-9.467-21.282-24.875-38.33-46.146-51.134C217.276 8.342 189.409 2 154.998 2c-25.653 0-48.3 3.171-67.91 9.555l-.006.002c-19.303 6.348-35.78 14.105-49.403 23.291-13.312 8.913-24.002 17.47-32.033 25.677l-1.103 1.127.838 1.335 31.72 50.536 1.33 2.122 1.775-1.769C50.24 103.874 63.915 95.435 81.322 88.61c17.35-6.802 35.58-10.205 54.704-10.205 20.735 0 36.663 6.07 48.059 18l.011.012.012.011c11.562 11.715 17.506 29.156 17.506 52.677 0 19.807-4.186 39.74-12.592 59.812-8.43 19.935-19.711 39.498-33.854 58.689-14.165 19.026-29.907 37.073-47.225 54.142-17.34 17.09-35.068 32.702-53.186 46.837l-.008.007c-17.94 14.15-34.876 26.223-50.812 36.226l-1.309.822.464 1.473 12.747 40.488Z" stroke="#FFF" stroke-width="4" fill="none"/></svg>