<svg width="130" height="198" fill="none" xmlns="http://www.w3.org/2000/svg"><path d="m9.537 189.039.015 1.535 1.487.383c4.237 1.09 9.123 2.176 14.654 3.26C31.358 195.41 37.62 196 44.47 196c16.733 0 31.36-2.646 43.832-8.005 12.493-5.332 22.25-12.407 29.162-21.278 6.989-8.95 10.536-18.714 10.536-29.244 0-7.711-1.805-15.04-5.404-21.96-3.644-7.092-9.269-12.834-16.789-17.236-4.359-2.628-9.4-4.501-15.096-5.647a81.264 81.264 0 0 0 7.538-5.255c6.128-4.811 10.997-10.54 14.586-17.182l.005-.01c3.624-6.794 5.416-14.427 5.416-22.854 0-9.562-2.437-17.793-7.409-24.578-4.855-6.82-11.673-11.976-20.358-15.5C81.812 3.732 71.72 2 60.258 2a87.002 87.002 0 0 0-23.343 3.183c-7.587 2.02-14.337 4.513-20.235 7.49C10.863 15.61 6.466 18.41 3.625 21.1L2.54 22.126l.677 1.332 11.841 23.284 1.057 2.077 1.893-1.36c4.145-2.977 9.121-5.777 14.946-8.39l.012-.006c5.681-2.592 12.579-3.928 20.755-3.928 7.01 0 12.52 1.627 16.696 4.713 3.94 2.912 5.91 7.42 5.605 13.987l-.001.016v.016c-.152 4.955-1.804 9.54-5.024 13.795l-.003.005c-3.13 4.16-7.86 7.841-14.324 10.982l-.022.011-.022.012c-3.247 1.679-7.04 3.213-11.389 4.596-4.361 1.304-8.973 2.407-13.835 3.307l-2.06.381.476 2.04 5.674 24.28.455 1.946 1.946-.454 14.265-3.323c8.132-.465 14.408.451 18.977 2.568 4.693 2.174 7.95 5.136 9.931 8.84l.004.007.004.008c2.05 3.756 3.086 7.906 3.086 12.488 0 5.895-1.954 11.025-5.903 15.474-3.993 4.416-9.63 7.905-17.034 10.396-7.4 2.49-15.976 3.756-25.757 3.756-3.508 0-7.357-.282-11.553-.851a233.528 233.528 0 0 1-12.21-2.219l-2.437-.513.025 2.49.246 25.15Z" stroke="#0049AF" stroke-width="4"/></svg>