<svg width="300" height="461" xmlns="http://www.w3.org/2000/svg"><path d="m19.132 445.146.015 1.536 1.49.381c10.093 2.584 21.755 5.164 34.981 7.741 13.36 2.802 28.177 4.196 44.444 4.196 39.817 0 74.486-6.266 103.956-18.863 29.602-12.569 52.565-29.179 68.78-49.883 16.41-20.899 24.666-43.59 24.666-68.026 0-17.939-4.218-34.977-12.64-51.09-8.47-16.4-21.562-29.724-39.189-39.985-11.953-7.172-26.188-11.959-42.664-14.406a193.32 193.32 0 0 0 24.254-16.137c14.398-11.245 25.814-24.615 34.227-40.104l.005-.009c8.45-15.757 12.653-33.503 12.653-53.192 0-22.317-5.71-41.35-17.23-56.983C245.591 34.54 229.7 22.55 209.3 14.316 188.911 6.086 165.096 2 137.901 2c-18.703 0-37.108 2.497-55.211 7.49-18.038 4.778-34.032 10.66-47.97 17.658C20.864 34.105 10.61 40.64 4.093 46.775L3 47.805l.684 1.337 28.379 55.512 1.056 2.065 1.887-1.349c10.118-7.229 22.215-13.993 36.31-20.283l.01-.006c14.067-6.385 31.015-9.617 50.907-9.617 17.233 0 31.072 3.984 41.68 11.782 10.37 7.624 15.323 19.371 14.558 35.699v.032c-.382 12.421-4.559 23.898-12.6 34.474l-.004.004c-7.838 10.366-19.574 19.39-35.34 27.013l-.023.011-.022.011c-7.956 4.092-17.204 7.81-27.755 11.147-10.563 3.142-21.722 5.796-33.476 7.96l-2.065.38.48 2.045 13.599 57.886.456 1.941 1.942-.45 34.422-7.977c19.85-1.155 35.487 1.026 47.062 6.361 11.7 5.393 20.01 12.838 25.09 22.285l.004.008.004.007c5.15 9.386 7.735 19.739 7.735 31.099 0 14.739-4.938 27.623-14.859 38.737-9.964 10.965-23.927 19.511-42.013 25.564-18.082 6.053-38.948 9.1-62.626 9.1-8.562 0-17.925-.684-28.093-2.058-10.21-1.577-20.022-3.351-29.439-5.321l-2.434-.51.025 2.487.591 59.965Z" stroke="#0049AF" stroke-width="4" fill="none"/></svg>