<svg width="35" height="30" xmlns="http://www.w3.org/2000/svg"><path d="M6.953 0c.212 0 .42.07.586.2a.91.91 0 0 1 .33.51l.754 3.171h24.435a.95.95 0 0 1 .761.374.903.903 0 0 1 .138.818l-4.424 13.563a.917.917 0 0 1-.342.46.96.96 0 0 1-.556.177H11.086a.963.963 0 0 1-.398-.086c-.468.283-.775.763-.775 1.143.013.278.135.541.34.736.205.194.479.306.765.311h18.1c.249 0 .488.097.665.268a.903.903 0 0 1 .276.648c0 .243-.1.476-.276.648a.955.955 0 0 1-.666.268V23.2H11.018a3.057 3.057 0 0 1-2.093-.845 2.892 2.892 0 0 1-.895-2.026c0-1.144.778-2.254 1.888-2.825L6.203 1.832H.942a.955.955 0 0 1-.666-.269A.903.903 0 0 1 0 .916C0 .673.1.44.276.268A.955.955 0 0 1 .942 0h6.01Zm24.82 5.72H9.053l2.781 11.721h16.11L31.773 5.72ZM12.992 29a2.973 2.973 0 0 1-1.618-.477 2.852 2.852 0 0 1-1.074-1.27 2.761 2.761 0 0 1-.167-1.638 2.81 2.81 0 0 1 .797-1.451 2.94 2.94 0 0 1 1.492-.776 2.99 2.99 0 0 1 1.683.16c.533.215.988.578 1.308 1.044a2.78 2.78 0 0 1 .491 1.575 2.798 2.798 0 0 1-.854 2.001 2.959 2.959 0 0 1-2.057.832Zm0-3.835c-.203 0-.402.058-.572.168a1.01 1.01 0 0 0-.38.449.976.976 0 0 0 .222 1.092 1.057 1.057 0 0 0 1.123.218c.188-.075.349-.204.462-.369a.983.983 0 0 0-.128-1.264 1.047 1.047 0 0 0-.726-.294ZM27.022 29a2.97 2.97 0 0 1-1.617-.481 2.852 2.852 0 0 1-1.07-1.273 2.762 2.762 0 0 1-.162-1.637 2.81 2.81 0 0 1 .8-1.448 2.94 2.94 0 0 1 1.49-.774 2.99 2.99 0 0 1 1.683.163c.532.214.986.578 1.306 1.043a2.771 2.771 0 0 1 .267 2.659 2.835 2.835 0 0 1-.633.92 2.925 2.925 0 0 1-.948.613 2.989 2.989 0 0 1-1.116.215Zm0-3.835c-.204 0-.403.058-.573.168-.17.11-.302.266-.38.449a.977.977 0 0 0 .222 1.092 1.057 1.057 0 0 0 1.123.218c.188-.075.35-.204.462-.369a.982.982 0 0 0-.128-1.264 1.047 1.047 0 0 0-.726-.294Z"/></svg>