<svg width="40" height="32" xmlns="http://www.w3.org/2000/svg"><path d="M20.001 32c-.274 0-.542-.079-.77-.227C7.613 24.226 0 18.664 0 10.503 0 5.66 2.643 0 10.096 0c4.915 0 8.155 2.856 9.905 5.472C21.751 2.856 24.99 0 29.904 0 37.357 0 40 5.659 40 10.504c0 8.166-7.614 13.722-19.23 21.269A1.41 1.41 0 0 1 20 32ZM10.096 2.705c-6.795 0-7.322 5.97-7.322 7.799 0 6.14 5.323 10.738 17.227 18.518 11.905-7.78 17.225-12.378 17.225-18.518 0-1.83-.527-7.799-7.322-7.799-6.38 0-8.568 6.143-8.599 6.205-.093.268-.27.5-.505.665a1.41 1.41 0 0 1-1.616 0 1.356 1.356 0 0 1-.506-.665c-.08-.254-2.26-6.205-8.582-6.205Z"/></svg>