<svg width="50" height="50" fill="none" xmlns="http://www.w3.org/2000/svg"><path d="M25.006 12.18A12.798 12.798 0 0 0 12.189 25c0 7.096 5.722 12.82 12.817 12.82A12.798 12.798 0 0 0 37.822 25c0-7.096-5.722-12.82-12.816-12.82Zm0 21.154c-4.585 0-8.333-3.737-8.333-8.334 0-4.597 3.737-8.334 8.333-8.334 4.595 0 8.332 3.737 8.332 8.334 0 4.597-3.748 8.334-8.332 8.334Zm16.33-21.678a2.983 2.983 0 0 1-2.99 2.99 2.983 2.983 0 0 1-2.99-2.99 2.99 2.99 0 1 1 5.98 0Zm8.488 3.035c-.19-4.005-1.104-7.553-4.038-10.476C42.864 1.29 39.316.377 35.312.175c-4.127-.234-16.497-.234-20.624 0-3.994.19-7.54 1.105-10.474 4.028C1.28 7.127.376 10.674.176 14.68c-.235 4.128-.235 16.501 0 20.629.19 4.005 1.104 7.553 4.038 10.477 2.933 2.923 6.47 3.837 10.474 4.038 4.127.235 16.497.235 20.624 0 4.005-.19 7.552-1.104 10.474-4.038 2.923-2.924 3.837-6.472 4.038-10.477.235-4.128.235-16.49 0-20.618Zm-5.331 25.047a8.437 8.437 0 0 1-4.752 4.753c-3.29 1.306-11.1 1.004-14.735 1.004-3.637 0-11.456.29-14.736-1.004a8.437 8.437 0 0 1-4.751-4.753C4.214 36.448 4.515 28.638 4.515 25c0-3.637-.29-11.458 1.004-14.738a8.437 8.437 0 0 1 4.752-4.753c3.29-1.306 11.098-1.004 14.735-1.004 3.636 0 11.455-.29 14.735 1.004a8.437 8.437 0 0 1 4.752 4.753c1.304 3.29 1.003 11.1 1.003 14.738 0 3.637.301 11.458-1.004 14.738Z" fill="#789BCE"/></svg>