<svg width="109" height="83" fill="none" xmlns="http://www.w3.org/2000/svg"><path d="M73.445 60.26v-8.371c0-7.971 8.363-10.974 8.363-10.974v-7.717c0-9.116-4.838-22.478-26.793-22.478h-2.88c-21.955.03-26.793 13.362-26.793 22.478v7.717s8.363 3.003 8.363 10.974v8.37h39.74Zm-.008 1.697H33.705v11.112h39.732V61.957Z" fill="#fff"/><path d="M20.404 41.253c2.941 0 11.081 3.517 11.081 10.199V80.94h-11.08V41.253ZM18.43 61.535H8.04l2.058 15.881h8.332v-15.88Zm-1.958-33.629c0 5.238-1.451 9.477-3.24 9.477-1.79 0-3.249-4.24-3.249-9.477a17.455 17.455 0 0 1 3.248-9.476 17.432 17.432 0 0 1 3.241 9.476ZM7.795 43.48a15.205 15.205 0 0 1 3.8 7.84 15.15 15.15 0 0 1-7.755-3.885A15.19 15.19 0 0 1 0 39.602c2.92.505 5.63 1.853 7.795 3.878Zm6.45-5.33h-2.012v20.535h2.012V38.15Zm77.922 42.79a1.006 1.006 0 1 0 0 2.012h15.236a1.006 1.006 0 0 0 0-2.012H92.167Z" fill="#fff"/><path d="M100.798 19.99h-2.012V81.5h2.012V19.99ZM14.245 31.262a1.006 1.006 0 0 0-2.012 0v5.49a1.006 1.006 0 0 0 2.012 0v-5.49Z" fill="#fff"/><path d="M99.785 0a6.443 6.443 0 0 0-6.335 5.291l-2.88 15.75H109l-2.872-15.75A6.453 6.453 0 0 0 99.785 0Z" fill="#fff"/><path d="M103.563 8.317a1.044 1.044 0 0 1-1.045-1.044 3.684 3.684 0 0 0-3.555-3.433 1.037 1.037 0 0 1 0-2.073 5.801 5.801 0 0 1 5.636 5.513 1.044 1.044 0 0 1-1.036 1.037ZM86.684 41.253c-2.941 0-11.073 3.517-11.073 10.183V80.94h11.073V41.253Z" fill="#fff"/><path d="M78.482 72.416a.998.998 0 0 1-.998-.998V52.703a8.923 8.923 0 0 1 2.795-6.143 1 1 0 1 1 1.283 1.535 6.912 6.912 0 0 0-2.089 4.654v18.669a.998.998 0 0 1-.99.998Z" fill="#fff"/></svg>