<svg width="294" height="44" fill="none" xmlns="http://www.w3.org/2000/svg"><path d="M39.409 32v-4.393c0-4.184 4.591-5.76 4.591-5.76v-4.05C44 13.013 41.344 6 29.29 6h-1.58C15.655 6.016 13 13.013 13 17.797v4.05s4.591 1.576 4.591 5.76V32H39.41ZM39 33H18v6h21v-6Z" fill="#0049AF"/><path d="M11 22c1.592 0 6 1.861 6 5.396V43h-6V22Zm-1 11H4l1.188 8H10v-8ZM9 15c0 2.763-.895 5-1.998 5S5 17.763 5 15c.082-1.798.779-3.537 2.002-5C8.225 11.463 8.92 13.202 9 15Zm-4.967 7.986A7.752 7.752 0 0 1 6 27a7.871 7.871 0 0 1-4.013-1.99A7.746 7.746 0 0 1 0 21a7.9 7.9 0 0 1 4.033 1.986ZM8 20H7v11h1V20Zm41.525 23a.513.513 0 0 0-.525.5c0 .276.235.5.525.5h7.95c.29 0 .525-.224.525-.5s-.235-.5-.525-.5h-7.95Z" fill="#0049AF"/><path d="M54 11h-1v32h1V11ZM8 16.536C8 16.24 7.776 16 7.5 16s-.5.24-.5.536v2.928c0 .296.224.536.5.536s.5-.24.5-.536v-2.928ZM53 0a3.58 3.58 0 0 0-2.239.783 3.344 3.344 0 0 0-1.199 1.983L48 11h10l-1.558-8.234A3.348 3.348 0 0 0 55.24.783 3.581 3.581 0 0 0 53 0Z" fill="#0049AF"/><path d="M55.379 4a.797.797 0 0 1-.24-.036.666.666 0 0 1-.203-.104.494.494 0 0 1-.136-.155.383.383 0 0 1-.047-.183c-.038-.417-.276-.81-.67-1.1-.394-.29-.915-.459-1.462-.472a.73.73 0 0 1-.439-.14.427.427 0 0 1-.182-.335c0-.126.066-.247.182-.336a.73.73 0 0 1 .44-.139c.876.018 1.71.288 2.337.756.627.468.998 1.1 1.041 1.77a.431.431 0 0 1-.183.334.734.734 0 0 1-.438.14ZM46 22c-1.594 0-6 1.861-6 5.388V43h6V22Zm22.94 13.22a9.51 9.51 0 0 1-1.94-.18c-.573-.12-1.213-.28-1.92-.48-.467-.133-.78-.207-.94-.22l.18-3.7h1.62l.44 2.58c.173.187.48.353.92.5.453.147.967.22 1.54.22.893 0 1.56-.193 2-.58.453-.4.68-.953.68-1.66 0-.467-.133-.867-.4-1.2-.267-.347-.633-.653-1.1-.92-.467-.28-1.107-.6-1.92-.96-1.107-.507-2.027-1.107-2.76-1.8-.72-.707-1.08-1.66-1.08-2.86 0-.747.193-1.42.58-2.02.387-.613.96-1.093 1.72-1.44.773-.36 1.713-.54 2.82-.54.653 0 1.227.047 1.72.14.507.093 1.053.22 1.64.38.347.093.607.153.78.18l-.12 3.5h-1.6l-.42-2.46c-.12-.12-.36-.233-.72-.34-.36-.12-.76-.18-1.2-.18-.8 0-1.407.187-1.82.56-.4.36-.6.847-.6 1.46 0 .493.147.92.44 1.28.307.36.673.667 1.1.92.427.24 1.1.587 2.02 1.04.747.36 1.387.713 1.92 1.06.533.347.993.8 1.38 1.36.387.547.58 1.193.58 1.94 0 .733-.187 1.433-.56 2.1-.36.667-.96 1.22-1.8 1.66-.827.44-1.887.66-3.18.66Zm12.13-13.58-1.7-.26v-1.24h6.4v1.24l-1.76.26V33.6l1.76.22V35h-6.4v-1.2l1.7-.2V21.64Zm11.363 0-1.56-.26v-1.24h2.98c.454 0 1.04-.027 1.76-.08.174-.013.38-.027.62-.04.24-.013.52-.02.84-.02 2.014 0 3.42.287 4.22.86.814.56 1.22 1.4 1.22 2.52 0 .987-.3 1.813-.9 2.48-.586.653-1.36 1.053-2.32 1.2 1.32-.013 2.354.287 3.1.9.76.613 1.14 1.467 1.14 2.56 0 1.387-.486 2.5-1.46 3.34-.973.84-2.6 1.26-4.88 1.26-.6 0-1.153-.02-1.66-.06a9.27 9.27 0 0 1-.68-.04 23.6 23.6 0 0 0-.98-.02h-3.02v-1.2l1.58-.2V21.64Zm2.9 4.98c.147.013.447.02.9.02h.94c.814 0 1.42-.253 1.82-.76.4-.507.6-1.22.6-2.14 0-.88-.206-1.52-.62-1.92-.413-.4-1.1-.6-2.06-.6-.253 0-.78.027-1.58.08v5.32Zm0 7.06c.307.12.894.18 1.76.18 1.134 0 1.954-.267 2.46-.8.507-.533.76-1.307.76-2.32 0-.973-.233-1.667-.7-2.08-.453-.427-1.18-.64-2.18-.64-1.12 0-1.82.013-2.1.04v5.62Zm19.342 1.54c-2.173 0-3.8-.68-4.88-2.04-1.08-1.36-1.62-3.213-1.62-5.56 0-1.533.28-2.88.84-4.04.573-1.16 1.373-2.053 2.4-2.68 1.027-.627 2.207-.94 3.54-.94 2.2 0 3.847.653 4.94 1.96 1.107 1.293 1.66 3.107 1.66 5.44 0 1.547-.293 2.92-.88 4.12-.573 1.187-1.38 2.107-2.42 2.76-1.04.653-2.233.98-3.58.98Zm.2-14.04c-1.093 0-1.947.54-2.56 1.62s-.92 2.68-.92 4.8c0 2.093.293 3.687.88 4.78.6 1.08 1.453 1.62 2.56 1.62 1.08 0 1.927-.567 2.54-1.7.613-1.147.92-2.793.92-4.94 0-2.08-.293-3.627-.88-4.64-.587-1.027-1.433-1.54-2.54-1.54Zm16.591 14.04c-.72 0-1.367-.06-1.94-.18-.574-.12-1.214-.28-1.92-.48-.467-.133-.78-.207-.94-.22l.18-3.7h1.62l.44 2.58c.173.187.48.353.92.5.453.147.966.22 1.54.22.893 0 1.56-.193 2-.58.453-.4.68-.953.68-1.66 0-.467-.134-.867-.4-1.2-.267-.347-.634-.653-1.1-.92-.467-.28-1.107-.6-1.92-.96-1.107-.507-2.027-1.107-2.76-1.8-.72-.707-1.08-1.66-1.08-2.86 0-.747.193-1.42.58-2.02.386-.613.96-1.093 1.72-1.44.773-.36 1.713-.54 2.82-.54a9.38 9.38 0 0 1 1.72.14c.506.093 1.053.22 1.64.38.346.093.606.153.78.18l-.12 3.5h-1.6l-.42-2.46c-.12-.12-.36-.233-.72-.34-.36-.12-.76-.18-1.2-.18-.8 0-1.407.187-1.82.56-.4.36-.6.847-.6 1.46 0 .493.146.92.44 1.28.306.36.673.667 1.1.92.426.24 1.1.587 2.02 1.04.746.36 1.386.713 1.92 1.06.533.347.993.8 1.38 1.36.386.547.58 1.193.58 1.94a4.24 4.24 0 0 1-.56 2.1c-.36.667-.96 1.22-1.8 1.66-.827.44-1.887.66-3.18.66Zm11.871-13.58-1.64-.26v-1.24h11.04l.2 3.62h-1.6l-.74-2.2-4.32-.22V27l2.98-.06.38-1.76h1.28v5.08h-1.26l-.4-1.8-2.98-.08v5.22l3.06.2V35h-7.54v-1.2l1.54-.2V21.64Zm21.181 13.52c-2.027 0-3.533-.507-4.52-1.52-.987-1.013-1.48-2.607-1.48-4.78v-7.22l-1.32-.26v-1.24h6.04v1.24l-1.7.28v7.46c0 3.173 1.127 4.76 3.38 4.76 1.107 0 1.927-.407 2.46-1.22.533-.827.8-1.98.8-3.46v-7.54l-1.72-.28v-1.24h5v1.24l-1.36.26v7.4c0 2.08-.507 3.62-1.52 4.62-1 1-2.353 1.5-4.06 1.5Zm11.343-1.36 1.58-.2V21.64l-1.5-.28v-1.22h2.9c.254 0 .534-.007.84-.02.307-.013.54-.027.7-.04a23.25 23.25 0 0 1 1.72-.08c1.374 0 2.474.14 3.3.42.827.28 1.427.707 1.8 1.28.374.573.56 1.327.56 2.26 0 .92-.246 1.773-.74 2.56-.493.787-1.206 1.327-2.14 1.62.534.227 1.007.64 1.42 1.24.414.6.854 1.38 1.32 2.34.334.653.587 1.127.76 1.42.187.28.367.44.54.48l.66.2V35h-3.4c-.213 0-.44-.213-.68-.64-.226-.44-.526-1.127-.9-2.06-.44-1.093-.82-1.947-1.14-2.56-.32-.613-.66-.993-1.02-1.14h-2.06v5l1.84.2V35h-6.36v-1.2Zm6.36-6.42c.76 0 1.354-.273 1.78-.82.427-.547.64-1.367.64-2.46 0-.973-.213-1.693-.64-2.16-.413-.467-1.133-.7-2.16-.7-.373 0-.693.02-.96.06a6.1 6.1 0 0 1-.5.04v6c.16.027.547.04 1.16.04h.68Zm13.054-5.74-1.58-.26v-1.24h4.54l5.96 9 1.12 2.28v-9.78l-1.72-.26v-1.24h4.96v1.24l-1.54.26V35h-2.42l-6.22-9.46-1.4-2.64v10.7l2.02.2V35h-5.3v-1.2l1.58-.2V21.64Zm19.695 0-1.7-.26v-1.24h6.4v1.24l-1.76.26V33.6l1.76.22V35h-6.4v-1.2l1.7-.2V21.64Zm14.643-.18-2.86.1-.78 4.36h-1.68l.34-5.78h12.9l.24 5.78h-1.58l-.78-4.36-2.82-.1V33.6l2.8.2V35h-8.34v-1.2l2.56-.2V21.46Zm19.698 13.7c-2.027 0-3.533-.507-4.52-1.52-.987-1.013-1.48-2.607-1.48-4.78v-7.22l-1.32-.26v-1.24h6.04v1.24l-1.7.28v7.46c0 3.173 1.127 4.76 3.38 4.76 1.107 0 1.927-.407 2.46-1.22.533-.827.8-1.98.8-3.46v-7.54l-1.72-.28v-1.24h5v1.24l-1.36.26v7.4c0 2.08-.507 3.62-1.52 4.62-1 1-2.353 1.5-4.06 1.5Zm11.343-1.36 1.58-.2V21.64l-1.5-.28v-1.22h2.9c.254 0 .534-.007.84-.02.307-.013.54-.027.7-.04a23.25 23.25 0 0 1 1.72-.08c1.374 0 2.474.14 3.3.42.827.28 1.427.707 1.8 1.28.374.573.56 1.327.56 2.26 0 .92-.246 1.773-.74 2.56-.493.787-1.206 1.327-2.14 1.62.534.227 1.007.64 1.42 1.24.414.6.854 1.38 1.32 2.34.334.653.587 1.127.76 1.42.187.28.367.44.54.48l.66.2V35h-3.4c-.213 0-.44-.213-.68-.64-.226-.44-.526-1.127-.9-2.06-.44-1.093-.82-1.947-1.14-2.56-.32-.613-.66-.993-1.02-1.14h-2.06v5l1.84.2V35h-6.36v-1.2Zm6.36-6.42c.76 0 1.354-.273 1.78-.82.427-.547.64-1.367.64-2.46 0-.973-.213-1.693-.64-2.16-.413-.467-1.133-.7-2.16-.7-.373 0-.693.02-.96.06a6.1 6.1 0 0 1-.5.04v6c.16.027.547.04 1.16.04h.68Zm13.034-5.74-1.6-.26v-1.24h10.66l.26 3.36h-1.4l-.66-1.98-4.32-.18v5.38l2.78-.06.32-1.64h1.28v4.84h-1.28l-.32-1.72-2.78-.06v5.64l4.84-.24 1.16-2.56 1.5.42-.52 3.66h-11.5v-1.2l1.58-.2V21.64Z" fill="#0049AF"/><path d="M41.675 39a.773.773 0 0 1-.477-.157.487.487 0 0 1-.198-.379V28.422c.062-1.253.74-2.437 1.89-3.297a.8.8 0 0 1 .494-.123.744.744 0 0 1 .459.19c.115.11.17.251.154.393a.514.514 0 0 1-.24.364c-.855.659-1.36 1.552-1.412 2.497v10.018c0 .142-.07.277-.196.378a.77.77 0 0 1-.474.158Z" fill="#0049AF"/></svg>